REM DIRINDEX 1\2\4\18,1\2\4\19,1\2\5\20,1\2\5\21,1\2\6\22,1\2\6\23,1\2\7\24,1\2\8\25,1\2\9\26,1\2\10\27,1\2\10\28,1\3\11\29,1\3\11\30,1\3\11\31,1\3\11\32,1\3\12\33,1\3\12\34,1\3\12\35,1\3\12\36,1\3\13\37,1\3\13\38,1\3\13\39,1\3\13\40,1\3\14\41,1\3\14\42,1\3\15\43,1\3\15\44,1\3\16\45,1\3\16\46,1\3\17\47,1\3\17\48,1\3\17\49,1\3\17\50
REM DIRNAME folder01,folder02,folder03,folder04,folder05,folder06,folder07,folder08,folder09,folder10,folder11,folder12,folder13,folder14,folder15,folder16,folder17,folder18,folder19,folder20,folder21,folder22,folder23,folder24,folder25,folder26,folder27,folder28,folder29,folder30,folder31,folder32,folder33,folder34,folder35,folder36,folder37,folder38,folder39,folder40,folder41,folder42,folder43,folder44,folder45,folder46,folder47,folder48,folder49,folder50
TITLE ""
FILE "15.mp3" MP3
  TRACK 01 AUDIO
    TITLE "0:"
    INDEX 01 00:00:00
  TRACK 02 AUDIO
    TITLE "29:cjc135_6856"
    INDEX 01 00:00:15
  TRACK 03 AUDIO
    TITLE "0:"
    INDEX 01 00:01:42
  TRACK 04 AUDIO
    TITLE "30:cjc135_6857"
    INDEX 01 00:02:18
  TRACK 05 AUDIO
    TITLE "0:"
    INDEX 01 00:04:27
  TRACK 06 AUDIO
    TITLE "31:cjc135_6858"
    INDEX 01 00:04:54
  TRACK 07 AUDIO
    TITLE "0:"
    INDEX 01 00:06:51
  TRACK 08 AUDIO
    TITLE "32:cjc135_6859"
    INDEX 01 00:07:00
  TRACK 09 AUDIO
    TITLE "0:"
    INDEX 01 00:08:68
  TRACK 10 AUDIO
    TITLE "29:cjc135_6860"
    INDEX 01 00:09:69
  TRACK 11 AUDIO
    TITLE "0:"
    INDEX 01 00:11:21
  TRACK 12 AUDIO
    TITLE "30:cjc135_6861"
    INDEX 01 00:11:68
  TRACK 13 AUDIO
    TITLE "0:"
    INDEX 01 00:13:37
  TRACK 14 AUDIO
    TITLE "31:cjc135_6862"
    INDEX 01 00:13:63
  TRACK 15 AUDIO
    TITLE "0:"
    INDEX 01 00:15:42
  TRACK 16 AUDIO
    TITLE "32:cjc135_6863"
    INDEX 01 00:15:68
  TRACK 17 AUDIO
    TITLE "0:"
    INDEX 01 00:17:47
  TRACK 18 AUDIO
    TITLE "29:cjc135_6864"
    INDEX 01 00:18:46
  TRACK 19 AUDIO
    TITLE "0:"
    INDEX 01 00:20:16
  TRACK 20 AUDIO
    TITLE "30:cjc135_6865"
    INDEX 01 00:20:65
  TRACK 21 AUDIO
    TITLE "0:"
    INDEX 01 00:23:59
  TRACK 22 AUDIO
    TITLE "31:cjc135_6866"
    INDEX 01 00:24:08
  TRACK 23 AUDIO
    TITLE "0:"
    INDEX 01 00:26:67
  TRACK 24 AUDIO
    TITLE "32:cjc135_6867"
    INDEX 01 00:27:18
  TRACK 25 AUDIO
    TITLE "0:"
    INDEX 01 00:30:01
  TRACK 26 AUDIO
    TITLE "29:cjc135_6868"
    INDEX 01 00:31:02
  TRACK 27 AUDIO
    TITLE "0:"
    INDEX 01 00:32:11
  TRACK 28 AUDIO
    TITLE "30:cjc135_6869"
    INDEX 01 00:32:60
  TRACK 29 AUDIO
    TITLE "0:"
    INDEX 01 00:34:71
  TRACK 30 AUDIO
    TITLE "31:cjc135_6870"
    INDEX 01 00:35:21
  TRACK 31 AUDIO
    TITLE "0:"
    INDEX 01 00:36:72
  TRACK 32 AUDIO
    TITLE "32:cjc135_6871"
    INDEX 01 00:37:28
  TRACK 33 AUDIO
    TITLE "0:"
    INDEX 01 00:39:03
  TRACK 34 AUDIO
    TITLE "29:cjc135_6872"
    INDEX 01 00:40:07
  TRACK 35 AUDIO
    TITLE "0:"
    INDEX 01 00:41:18
  TRACK 36 AUDIO
    TITLE "30:cjc135_6873"
    INDEX 01 00:41:67
  TRACK 37 AUDIO
    TITLE "0:"
    INDEX 01 00:43:21
  TRACK 38 AUDIO
    TITLE "31:cjc135_6874"
    INDEX 01 00:43:46
  TRACK 39 AUDIO
    TITLE "0:"
    INDEX 01 00:45:33
  TRACK 40 AUDIO
    TITLE "32:cjc135_6875"
    INDEX 01 00:45:57
  TRACK 41 AUDIO
    TITLE "0:"
    INDEX 01 00:47:42
  TRACK 42 AUDIO
    TITLE "29:cjc135_6876"
    INDEX 01 00:48:42
  TRACK 43 AUDIO
    TITLE "0:"
    INDEX 01 00:49:61
  TRACK 44 AUDIO
    TITLE "30:cjc135_6877"
    INDEX 01 00:50:37
  TRACK 45 AUDIO
    TITLE "0:"
    INDEX 01 00:52:59
  TRACK 46 AUDIO
    TITLE "31:cjc135_6878"
    INDEX 01 00:53:09
  TRACK 47 AUDIO
    TITLE "0:"
    INDEX 01 00:55:24
  TRACK 48 AUDIO
    TITLE "32:cjc135_6879"
    INDEX 01 00:55:48
  TRACK 49 AUDIO
    TITLE "0:"
    INDEX 01 00:57:62
  TRACK 50 AUDIO
    TITLE "29:cjc135_6880"
    INDEX 01 00:58:60
  TRACK 51 AUDIO
    TITLE "0:"
    INDEX 01 01:00:06
  TRACK 52 AUDIO
    TITLE "30:cjc135_6881"
    INDEX 01 01:00:57
  TRACK 53 AUDIO
    TITLE "0:"
    INDEX 01 01:03:27
  TRACK 54 AUDIO
    TITLE "31:cjc135_6882"
    INDEX 01 01:03:53
  TRACK 55 AUDIO
    TITLE "0:"
    INDEX 01 01:05:56
  TRACK 56 AUDIO
    TITLE "32:cjc135_6883"
    INDEX 01 01:06:08
  TRACK 57 AUDIO
    TITLE "0:"
    INDEX 01 01:08:13
  TRACK 58 AUDIO
    TITLE "29:cjc135_6884"
    INDEX 01 01:09:12
  TRACK 59 AUDIO
    TITLE "0:"
    INDEX 01 01:10:31
  TRACK 60 AUDIO
    TITLE "30:cjc135_6885"
    INDEX 01 01:11:05
  TRACK 61 AUDIO
    TITLE "0:"
    INDEX 01 01:14:27
  TRACK 62 AUDIO
    TITLE "31:cjc135_6886"
    INDEX 01 01:14:53
  TRACK 63 AUDIO
    TITLE "0:"
    INDEX 01 01:17:67
  TRACK 64 AUDIO
    TITLE "32:cjc135_6887"
    INDEX 01 01:18:17
  TRACK 65 AUDIO
    TITLE "0:"
    INDEX 01 01:21:35
  TRACK 66 AUDIO
    TITLE "29:cjc135_6888"
    INDEX 01 01:22:33
  TRACK 67 AUDIO
    TITLE "0:"
    INDEX 01 01:23:46
  TRACK 68 AUDIO
    TITLE "30:cjc135_6889"
    INDEX 01 01:24:22
  TRACK 69 AUDIO
    TITLE "0:"
    INDEX 01 01:26:60
  TRACK 70 AUDIO
    TITLE "31:cjc135_6890"
    INDEX 01 01:27:12
  TRACK 71 AUDIO
    TITLE "0:"
    INDEX 01 01:29:68
  TRACK 72 AUDIO
    TITLE "32:cjc135_6891"
    INDEX 01 01:30:20
  TRACK 73 AUDIO
    TITLE "0:"
    INDEX 01 01:33:01
  TRACK 74 AUDIO
    TITLE "29:cjc135_6892"
    INDEX 01 01:34:03
  TRACK 75 AUDIO
    TITLE "0:"
    INDEX 01 01:35:18
  TRACK 76 AUDIO
    TITLE "30:cjc135_6893"
    INDEX 01 01:35:71
  TRACK 77 AUDIO
    TITLE "0:"
    INDEX 01 01:38:14
  TRACK 78 AUDIO
    TITLE "31:cjc135_6894"
    INDEX 01 01:38:40
  TRACK 79 AUDIO
    TITLE "0:"
    INDEX 01 01:40:19
  TRACK 80 AUDIO
    TITLE "32:cjc135_6895"
    INDEX 01 01:40:44
  TRACK 81 AUDIO
    TITLE "0:"
    INDEX 01 01:42:24
  TRACK 82 AUDIO
    TITLE "29:cjc135_6896"
    INDEX 01 01:43:25
  TRACK 83 AUDIO
    TITLE "0:"
    INDEX 01 01:44:54
  TRACK 84 AUDIO
    TITLE "30:cjc135_6897"
    INDEX 01 01:45:30
  TRACK 85 AUDIO
    TITLE "0:"
    INDEX 01 01:47:74
  TRACK 86 AUDIO
    TITLE "31:cjc135_6898"
    INDEX 01 01:48:26
  TRACK 87 AUDIO
    TITLE "0:"
    INDEX 01 01:50:45
  TRACK 88 AUDIO
    TITLE "32:cjc135_6899"
    INDEX 01 01:50:70
  TRACK 89 AUDIO
    TITLE "0:"
    INDEX 01 01:53:12
  TRACK 90 AUDIO
    TITLE "29:cjc135_6900"
    INDEX 01 01:54:13
  TRACK 91 AUDIO
    TITLE "0:"
    INDEX 01 01:55:18
  TRACK 92 AUDIO
    TITLE "30:cjc135_6901"
    INDEX 01 01:55:67
  TRACK 93 AUDIO
    TITLE "0:"
    INDEX 01 01:57:58
  TRACK 94 AUDIO
    TITLE "31:cjc135_6902"
    INDEX 01 01:58:09
  TRACK 95 AUDIO
    TITLE "0:"
    INDEX 01 01:59:73
  TRACK 96 AUDIO
    TITLE "32:cjc135_6903"
    INDEX 01 02:00:22
  TRACK 97 AUDIO
    TITLE "0:"
    INDEX 01 02:02:09
  TRACK 98 AUDIO
    TITLE "29:cjc135_6904"
    INDEX 01 02:03:10
  TRACK 99 AUDIO
    TITLE "0:"
    INDEX 01 02:04:02
  TRACK 100 AUDIO
    TITLE "30:cjc135_6905"
    INDEX 01 02:04:53
  TRACK 101 AUDIO
    TITLE "0:"
    INDEX 01 02:06:65
  TRACK 102 AUDIO
    TITLE "31:cjc135_6906"
    INDEX 01 02:07:14
  TRACK 103 AUDIO
    TITLE "0:"
    INDEX 01 02:09:26
  TRACK 104 AUDIO
    TITLE "32:cjc135_6907"
    INDEX 01 02:09:50
  TRACK 105 AUDIO
    TITLE "0:"
    INDEX 01 02:11:59
  TRACK 106 AUDIO
    TITLE "29:cjc135_6908"
    INDEX 01 02:12:60
  TRACK 107 AUDIO
    TITLE "0:"
    INDEX 01 02:13:67
  TRACK 108 AUDIO
    TITLE "30:cjc135_6909"
    INDEX 01 02:14:43
  TRACK 109 AUDIO
    TITLE "0:"
    INDEX 01 02:17:04
  TRACK 110 AUDIO
    TITLE "31:cjc135_6910"
    INDEX 01 02:17:30
  TRACK 111 AUDIO
    TITLE "0:"
    INDEX 01 02:19:03
  TRACK 112 AUDIO
    TITLE "32:cjc135_6911"
    INDEX 01 02:19:29
  TRACK 113 AUDIO
    TITLE "0:"
    INDEX 01 02:21:04
  TRACK 114 AUDIO
    TITLE "29:cjc135_6912"
    INDEX 01 02:22:06
  TRACK 115 AUDIO
    TITLE "0:"
    INDEX 01 02:23:03
  TRACK 116 AUDIO
    TITLE "30:cjc135_6913"
    INDEX 01 02:23:52
  TRACK 117 AUDIO
    TITLE "0:"
    INDEX 01 02:27:07
  TRACK 118 AUDIO
    TITLE "31:cjc135_6914"
    INDEX 01 02:27:32
  TRACK 119 AUDIO
    TITLE "0:"
    INDEX 01 02:30:11
  TRACK 120 AUDIO
    TITLE "32:cjc135_6915"
    INDEX 01 02:30:34
  TRACK 121 AUDIO
    TITLE "0:"
    INDEX 01 02:33:13
  TRACK 122 AUDIO
    TITLE "29:cjc135_6916"
    INDEX 01 02:34:13
  TRACK 123 AUDIO
    TITLE "0:"
    INDEX 01 02:35:12
  TRACK 124 AUDIO
    TITLE "30:cjc135_6917"
    INDEX 01 02:35:63
  TRACK 125 AUDIO
    TITLE "0:"
    INDEX 01 02:37:50
  TRACK 126 AUDIO
    TITLE "31:cjc135_6918"
    INDEX 01 02:37:74
  TRACK 127 AUDIO
    TITLE "0:"
    INDEX 01 02:39:49
  TRACK 128 AUDIO
    TITLE "32:cjc135_6919"
    INDEX 01 02:40:01
  TRACK 129 AUDIO
    TITLE "0:"
    INDEX 01 02:41:52
  TRACK 130 AUDIO
    TITLE "29:cjc135_6920"
    INDEX 01 02:42:55
  TRACK 131 AUDIO
    TITLE "0:"
    INDEX 01 02:44:07
  TRACK 132 AUDIO
    TITLE "30:cjc135_6921"
    INDEX 01 02:44:60
  TRACK 133 AUDIO
    TITLE "0:"
    INDEX 01 02:47:27
  TRACK 134 AUDIO
    TITLE "31:cjc135_6922"
    INDEX 01 02:47:52
  TRACK 135 AUDIO
    TITLE "0:"
    INDEX 01 02:50:37
  TRACK 136 AUDIO
    TITLE "32:cjc135_6923"
    INDEX 01 02:50:63
  TRACK 137 AUDIO
    TITLE "0:"
    INDEX 01 02:53:47
  TRACK 138 AUDIO
    TITLE "29:cjc135_6924"
    INDEX 01 02:54:47
  TRACK 139 AUDIO
    TITLE "0:"
    INDEX 01 02:55:64
  TRACK 140 AUDIO
    TITLE "30:cjc135_6925"
    INDEX 01 02:56:40
  TRACK 141 AUDIO
    TITLE "0:"
    INDEX 01 02:58:44
  TRACK 142 AUDIO
    TITLE "31:cjc135_6926"
    INDEX 01 02:58:68
  TRACK 143 AUDIO
    TITLE "0:"
    INDEX 01 03:00:57
  TRACK 144 AUDIO
    TITLE "32:cjc135_6927"
    INDEX 01 03:01:06
  TRACK 145 AUDIO
    TITLE "0:"
    INDEX 01 03:02:68
  TRACK 146 AUDIO
    TITLE "29:cjc135_6928"
    INDEX 01 03:03:67
  TRACK 147 AUDIO
    TITLE "0:"
    INDEX 01 03:04:74
  TRACK 148 AUDIO
    TITLE "30:cjc135_6929"
    INDEX 01 03:05:48
  TRACK 149 AUDIO
    TITLE "0:"
    INDEX 01 03:08:33
  TRACK 150 AUDIO
    TITLE "31:cjc135_6930"
    INDEX 01 03:08:57
  TRACK 151 AUDIO
    TITLE "0:"
    INDEX 01 03:11:02
  TRACK 152 AUDIO
    TITLE "32:cjc135_6931"
    INDEX 01 03:11:27
  TRACK 153 AUDIO
    TITLE "0:"
    INDEX 01 03:13:48
  TRACK 154 AUDIO
    TITLE "29:cjc135_6932"
    INDEX 01 03:14:47
  TRACK 155 AUDIO
    TITLE "0:"
    INDEX 01 03:16:13
  TRACK 156 AUDIO
    TITLE "30:cjc135_6933"
    INDEX 01 03:16:64
  TRACK 157 AUDIO
    TITLE "0:"
    INDEX 01 03:20:17
  TRACK 158 AUDIO
    TITLE "31:cjc135_6934"
    INDEX 01 03:20:44
  TRACK 159 AUDIO
    TITLE "0:"
    INDEX 01 03:23:72
  TRACK 160 AUDIO
    TITLE "32:cjc135_6935"
    INDEX 01 03:24:24
  TRACK 161 AUDIO
    TITLE "0:"
    INDEX 01 03:27:54
  TRACK 162 AUDIO
    TITLE "29:cjc135_6936"
    INDEX 01 03:28:55
  TRACK 163 AUDIO
    TITLE "0:"
    INDEX 01 03:30:03
  TRACK 164 AUDIO
    TITLE "30:cjc135_6937"
    INDEX 01 03:30:52
  TRACK 165 AUDIO
    TITLE "0:"
    INDEX 01 03:32:30
  TRACK 166 AUDIO
    TITLE "31:cjc135_6938"
    INDEX 01 03:32:63
  TRACK 167 AUDIO
    TITLE "0:"
    INDEX 01 03:34:50
  TRACK 168 AUDIO
    TITLE "32:cjc135_6939"
    INDEX 01 03:35:03
  TRACK 169 AUDIO
    TITLE "0:"
    INDEX 01 03:36:65
  TRACK 170 AUDIO
    TITLE "29:cjc135_6940"
    INDEX 01 03:37:68
  TRACK 171 AUDIO
    TITLE "0:"
    INDEX 01 03:39:14
  TRACK 172 AUDIO
    TITLE "30:cjc135_6941"
    INDEX 01 03:39:63
  TRACK 173 AUDIO
    TITLE "0:"
    INDEX 01 03:41:72
  TRACK 174 AUDIO
    TITLE "31:cjc135_6942"
    INDEX 01 03:42:26
  TRACK 175 AUDIO
    TITLE "0:"
    INDEX 01 03:44:35
  TRACK 176 AUDIO
    TITLE "32:cjc135_6943"
    INDEX 01 03:44:64
  TRACK 177 AUDIO
    TITLE "0:"
    INDEX 01 03:46:73
  TRACK 178 AUDIO
    TITLE "29:cjc135_6944"
    INDEX 01 03:47:74
  TRACK 179 AUDIO
    TITLE "0:"
    INDEX 01 03:49:16
  TRACK 180 AUDIO
    TITLE "30:cjc135_6945"
    INDEX 01 03:49:65
  TRACK 181 AUDIO
    TITLE "0:"
    INDEX 01 03:52:64
  TRACK 182 AUDIO
    TITLE "31:cjc135_6946"
    INDEX 01 03:53:14
  TRACK 183 AUDIO
    TITLE "0:"
    INDEX 01 03:55:46
  TRACK 184 AUDIO
    TITLE "32:cjc135_6947"
    INDEX 01 03:55:70
  TRACK 185 AUDIO
    TITLE "0:"
    INDEX 01 03:58:25
  TRACK 186 AUDIO
    TITLE "29:cjc135_6948"
    INDEX 01 03:59:25
  TRACK 187 AUDIO
    TITLE "0:"
    INDEX 01 04:00:42
  TRACK 188 AUDIO
    TITLE "30:cjc135_6949"
    INDEX 01 04:01:18
  TRACK 189 AUDIO
    TITLE "0:"
    INDEX 01 04:03:01
  TRACK 190 AUDIO
    TITLE "31:cjc135_6950"
    INDEX 01 04:03:28
  TRACK 191 AUDIO
    TITLE "0:"
    INDEX 01 04:05:64
  TRACK 192 AUDIO
    TITLE "32:cjc135_6951"
    INDEX 01 04:06:13
  TRACK 193 AUDIO
    TITLE "0:"
    INDEX 01 04:08:49
  TRACK 194 AUDIO
    TITLE "29:cjc135_6952"
    INDEX 01 04:09:46
  TRACK 195 AUDIO
    TITLE "0:"
    INDEX 01 04:10:67
  TRACK 196 AUDIO
    TITLE "30:cjc135_6953"
    INDEX 01 04:11:39
  TRACK 197 AUDIO
    TITLE "0:"
    INDEX 01 04:15:22
  TRACK 198 AUDIO
    TITLE "31:cjc135_6954"
    INDEX 01 04:15:49
  TRACK 199 AUDIO
    TITLE "0:"
    INDEX 01 04:19:25
  TRACK 200 AUDIO
    TITLE "32:cjc135_6955"
    INDEX 01 04:19:49
  TRACK 201 AUDIO
    TITLE "0:"
    INDEX 01 04:23:25
  TRACK 202 AUDIO
    TITLE "29:cjc135_6956"
    INDEX 01 04:24:24
  TRACK 203 AUDIO
    TITLE "0:"
    INDEX 01 04:25:36
  TRACK 204 AUDIO
    TITLE "30:cjc135_6957"
    INDEX 01 04:26:12
  TRACK 205 AUDIO
    TITLE "0:"
    INDEX 01 04:27:56
  TRACK 206 AUDIO
    TITLE "31:cjc135_6958"
    INDEX 01 04:28:07
  TRACK 207 AUDIO
    TITLE "0:"
    INDEX 01 04:29:43
  TRACK 208 AUDIO
    TITLE "32:cjc135_6959"
    INDEX 01 04:29:71
  TRACK 209 AUDIO
    TITLE "0:"
    INDEX 01 04:31:30
  TRACK 210 AUDIO
    TITLE "29:cjc135_6960"
    INDEX 01 04:32:32
  TRACK 211 AUDIO
    TITLE "0:"
    INDEX 01 04:33:47
  TRACK 212 AUDIO
    TITLE "30:cjc135_6961"
    INDEX 01 04:34:19
  TRACK 213 AUDIO
    TITLE "0:"
    INDEX 01 04:37:02
  TRACK 214 AUDIO
    TITLE "31:cjc135_6962"
    INDEX 01 04:37:27
  TRACK 215 AUDIO
    TITLE "0:"
    INDEX 01 04:39:34
  TRACK 216 AUDIO
    TITLE "32:cjc135_6963"
    INDEX 01 04:39:59
  TRACK 217 AUDIO
    TITLE "0:"
    INDEX 01 04:41:66
  TRACK 218 AUDIO
    TITLE "29:cjc135_6964"
    INDEX 01 04:42:67
  TRACK 219 AUDIO
    TITLE "0:"
    INDEX 01 04:44:12
  TRACK 220 AUDIO
    TITLE "30:cjc135_6965"
    INDEX 01 04:44:62
  TRACK 221 AUDIO
    TITLE "0:"
    INDEX 01 04:47:33
  TRACK 222 AUDIO
    TITLE "31:cjc135_6966"
    INDEX 01 04:47:57
  TRACK 223 AUDIO
    TITLE "0:"
    INDEX 01 04:51:00
  TRACK 224 AUDIO
    TITLE "32:cjc135_6967"
    INDEX 01 04:51:25
  TRACK 225 AUDIO
    TITLE "0:"
    INDEX 01 04:54:43
  TRACK 226 AUDIO
    TITLE "29:cjc135_6968"
    INDEX 01 04:55:43
  TRACK 227 AUDIO
    TITLE "0:"
    INDEX 01 04:56:60
  TRACK 228 AUDIO
    TITLE "30:cjc135_6969"
    INDEX 01 04:57:38
  TRACK 229 AUDIO
    TITLE "0:"
    INDEX 01 04:59:44
  TRACK 230 AUDIO
    TITLE "31:cjc135_6970"
    INDEX 01 04:59:68
  TRACK 231 AUDIO
    TITLE "0:"
    INDEX 01 05:02:07
  TRACK 232 AUDIO
    TITLE "32:cjc135_6971"
    INDEX 01 05:02:33
  TRACK 233 AUDIO
    TITLE "0:"
    INDEX 01 05:04:44
  TRACK 234 AUDIO
    TITLE "29:cjc135_6972"
    INDEX 01 05:05:47
  TRACK 235 AUDIO
    TITLE "0:"
    INDEX 01 05:07:03
  TRACK 236 AUDIO
    TITLE "30:cjc135_6973"
    INDEX 01 05:07:54
  TRACK 237 AUDIO
    TITLE "0:"
    INDEX 01 05:10:07
  TRACK 238 AUDIO
    TITLE "31:cjc135_6974"
    INDEX 01 05:10:32
  TRACK 239 AUDIO
    TITLE "0:"
    INDEX 01 05:13:05
  TRACK 240 AUDIO
    TITLE "32:cjc135_6975"
    INDEX 01 05:13:29
  TRACK 241 AUDIO
    TITLE "0:"
    INDEX 01 05:16:02
  TRACK 242 AUDIO
    TITLE "29:cjc135_6976"
    INDEX 01 05:17:01
  TRACK 243 AUDIO
    TITLE "0:"
    INDEX 01 05:18:24
  TRACK 244 AUDIO
    TITLE "30:cjc135_6977"
    INDEX 01 05:18:73
  TRACK 245 AUDIO
    TITLE "0:"
    INDEX 01 05:20:48
  TRACK 246 AUDIO
    TITLE "31:cjc135_6978"
    INDEX 01 05:20:72
  TRACK 247 AUDIO
    TITLE "0:"
    INDEX 01 05:22:69
  TRACK 248 AUDIO
    TITLE "32:cjc135_6979"
    INDEX 01 05:23:17
  TRACK 249 AUDIO
    TITLE "0:"
    INDEX 01 05:25:14
  TRACK 250 AUDIO
    TITLE "29:cjc135_6980"
    INDEX 01 05:26:12
  TRACK 251 AUDIO
    TITLE "0:"
    INDEX 01 05:27:29
  TRACK 252 AUDIO
    TITLE "30:cjc135_6981"
    INDEX 01 05:28:07
  TRACK 253 AUDIO
    TITLE "0:"
    INDEX 01 05:30:12
  TRACK 254 AUDIO
    TITLE "31:cjc135_6982"
    INDEX 01 05:30:37
  TRACK 255 AUDIO
    TITLE "0:"
    INDEX 01 05:33:16
  TRACK 256 AUDIO
    TITLE "32:cjc135_6983"
    INDEX 01 05:33:39
  TRACK 257 AUDIO
    TITLE "0:"
    INDEX 01 05:36:18
  TRACK 258 AUDIO
    TITLE "29:cjc135_6984"
    INDEX 01 05:37:18
  TRACK 259 AUDIO
    TITLE "0:"
    INDEX 01 05:38:27
  TRACK 260 AUDIO
    TITLE "30:cjc135_6985"
    INDEX 01 05:39:03
  TRACK 261 AUDIO
    TITLE "0:"
    INDEX 01 05:41:04
  TRACK 262 AUDIO
    TITLE "31:cjc135_6986"
    INDEX 01 05:41:29
  TRACK 263 AUDIO
    TITLE "0:"
    INDEX 01 05:43:03
  TRACK 264 AUDIO
    TITLE "32:cjc135_6987"
    INDEX 01 05:43:28
  TRACK 265 AUDIO
    TITLE "0:"
    INDEX 01 05:44:74
  TRACK 266 AUDIO
    TITLE "29:cjc135_6988"
    INDEX 01 05:45:74
  TRACK 267 AUDIO
    TITLE "0:"
    INDEX 01 05:47:10
  TRACK 268 AUDIO
    TITLE "30:cjc135_6989"
    INDEX 01 05:47:59
  TRACK 269 AUDIO
    TITLE "0:"
    INDEX 01 05:51:18
  TRACK 270 AUDIO
    TITLE "31:cjc135_6990"
    INDEX 01 05:51:41
  TRACK 271 AUDIO
    TITLE "0:"
    INDEX 01 05:54:02
  TRACK 272 AUDIO
    TITLE "32:cjc135_6991"
    INDEX 01 05:54:28
  TRACK 273 AUDIO
    TITLE "0:"
    INDEX 01 05:56:62
  TRACK 274 AUDIO
    TITLE "29:cjc135_6992"
    INDEX 01 05:57:63
  TRACK 275 AUDIO
    TITLE "0:"
    INDEX 01 05:59:00
  TRACK 276 AUDIO
    TITLE "30:cjc135_6993"
    INDEX 01 05:59:52
  TRACK 277 AUDIO
    TITLE "0:"
    INDEX 01 06:02:27
  TRACK 278 AUDIO
    TITLE "31:cjc135_6994"
    INDEX 01 06:02:53
  TRACK 279 AUDIO
    TITLE "0:"
    INDEX 01 06:05:04
  TRACK 280 AUDIO
    TITLE "32:cjc135_6995"
    INDEX 01 06:05:30
  TRACK 281 AUDIO
    TITLE "0:"
    INDEX 01 06:07:56
  TRACK 282 AUDIO
    TITLE "29:cjc135_6996"
    INDEX 01 06:08:57
  TRACK 283 AUDIO
    TITLE "0:"
    INDEX 01 06:09:74
  TRACK 284 AUDIO
    TITLE "30:cjc135_6997"
    INDEX 01 06:10:50
  TRACK 285 AUDIO
    TITLE "0:"
    INDEX 01 06:12:65
  TRACK 286 AUDIO
    TITLE "31:cjc135_6998"
    INDEX 01 06:13:19
  TRACK 287 AUDIO
    TITLE "0:"
    INDEX 01 06:15:03
  TRACK 288 AUDIO
    TITLE "32:cjc135_6999"
    INDEX 01 06:15:32
  TRACK 289 AUDIO
    TITLE "0:"
    INDEX 01 06:17:15
  TRACK 290 AUDIO
    TITLE "29:cjc135_7000"
    INDEX 01 06:18:15
  TRACK 291 AUDIO
    TITLE "0:"
    INDEX 01 06:19:24
  TRACK 292 AUDIO
    TITLE "30:cjc135_7001"
    INDEX 01 06:20:02
  TRACK 293 AUDIO
    TITLE "0:"
    INDEX 01 06:22:67
  TRACK 294 AUDIO
    TITLE "31:cjc135_7002"
    INDEX 01 06:23:18
  TRACK 295 AUDIO
    TITLE "0:"
    INDEX 01 06:25:54
  TRACK 296 AUDIO
    TITLE "32:cjc135_7003"
    INDEX 01 06:26:02
  TRACK 297 AUDIO
    TITLE "0:"
    INDEX 01 06:28:38
  TRACK 298 AUDIO
    TITLE "29:cjc135_7004"
    INDEX 01 06:29:38
  TRACK 299 AUDIO
    TITLE "0:"
    INDEX 01 06:30:69
  TRACK 300 AUDIO
    TITLE "30:cjc135_7005"
    INDEX 01 06:31:47
  TRACK 301 AUDIO
    TITLE "0:"
    INDEX 01 06:33:49
  TRACK 302 AUDIO
    TITLE "31:cjc135_7006"
    INDEX 01 06:34:00
  TRACK 303 AUDIO
    TITLE "0:"
    INDEX 01 06:36:03
  TRACK 304 AUDIO
    TITLE "32:cjc135_7007"
    INDEX 01 06:36:30
  TRACK 305 AUDIO
    TITLE "0:"
    INDEX 01 06:38:35
  TRACK 306 AUDIO
    TITLE "29:cjc135_7008"
    INDEX 01 06:39:34
  TRACK 307 AUDIO
    TITLE "0:"
    INDEX 01 06:40:61
  TRACK 308 AUDIO
    TITLE "30:cjc135_7009"
    INDEX 01 06:41:37
  TRACK 309 AUDIO
    TITLE "0:"
    INDEX 01 06:43:22
  TRACK 310 AUDIO
    TITLE "31:cjc135_7010"
    INDEX 01 06:43:48
  TRACK 311 AUDIO
    TITLE "0:"
    INDEX 01 06:45:45
  TRACK 312 AUDIO
    TITLE "32:cjc135_7011"
    INDEX 01 06:45:72
  TRACK 313 AUDIO
    TITLE "0:"
    INDEX 01 06:47:73
  TRACK 314 AUDIO
    TITLE "29:cjc135_7012"
    INDEX 01 06:48:72
  TRACK 315 AUDIO
    TITLE "0:"
    INDEX 01 06:50:32
  TRACK 316 AUDIO
    TITLE "30:cjc135_7013"
    INDEX 01 06:51:10
  TRACK 317 AUDIO
    TITLE "0:"
    INDEX 01 06:53:44
  TRACK 318 AUDIO
    TITLE "31:cjc135_7014"
    INDEX 01 06:53:68
  TRACK 319 AUDIO
    TITLE "0:"
    INDEX 01 06:56:23
  TRACK 320 AUDIO
    TITLE "32:cjc135_7015"
    INDEX 01 06:56:47
  TRACK 321 AUDIO
    TITLE "0:"
    INDEX 01 06:59:02
  TRACK 322 AUDIO
    TITLE "29:cjc135_7016"
    INDEX 01 07:00:01
  TRACK 323 AUDIO
    TITLE "0:"
    INDEX 01 07:01:10
  TRACK 324 AUDIO
    TITLE "30:cjc135_7017"
    INDEX 01 07:01:61
  TRACK 325 AUDIO
    TITLE "0:"
    INDEX 01 07:04:03
  TRACK 326 AUDIO
    TITLE "31:cjc135_7018"
    INDEX 01 07:04:30
  TRACK 327 AUDIO
    TITLE "0:"
    INDEX 01 07:06:19
  TRACK 328 AUDIO
    TITLE "32:cjc135_7019"
    INDEX 01 07:06:45
  TRACK 329 AUDIO
    TITLE "0:"
    INDEX 01 07:08:36
  TRACK 330 AUDIO
    TITLE "29:cjc135_7020"
    INDEX 01 07:09:35
  TRACK 331 AUDIO
    TITLE "0:"
    INDEX 01 07:10:56
  TRACK 332 AUDIO
    TITLE "30:cjc135_7021"
    INDEX 01 07:11:28
  TRACK 333 AUDIO
    TITLE "0:"
    INDEX 01 07:14:27
  TRACK 334 AUDIO
    TITLE "31:cjc135_7022"
    INDEX 01 07:14:52
  TRACK 335 AUDIO
    TITLE "0:"
    INDEX 01 07:17:27
  TRACK 336 AUDIO
    TITLE "32:cjc135_7023"
    INDEX 01 07:17:51
  TRACK 337 AUDIO
    TITLE "0:"
    INDEX 01 07:20:24
  TRACK 338 AUDIO
    TITLE "29:cjc135_7024"
    INDEX 01 07:21:23
  TRACK 339 AUDIO
    TITLE "0:"
    INDEX 01 07:22:50
  TRACK 340 AUDIO
    TITLE "30:cjc135_7025"
    INDEX 01 07:23:24
  TRACK 341 AUDIO
    TITLE "0:"
    INDEX 01 07:25:64
  TRACK 342 AUDIO
    TITLE "31:cjc135_7026"
    INDEX 01 07:26:14
  TRACK 343 AUDIO
    TITLE "0:"
    INDEX 01 07:28:56
  TRACK 344 AUDIO
    TITLE "32:cjc135_7027"
    INDEX 01 07:29:05
  TRACK 345 AUDIO
    TITLE "0:"
    INDEX 01 07:31:47
  TRACK 346 AUDIO
    TITLE "29:cjc135_7028"
    INDEX 01 07:32:44
  TRACK 347 AUDIO
    TITLE "0:"
    INDEX 01 07:33:69
  TRACK 348 AUDIO
    TITLE "30:cjc135_7029"
    INDEX 01 07:34:37
  TRACK 349 AUDIO
    TITLE "0:"
    INDEX 01 07:37:32
  TRACK 350 AUDIO
    TITLE "31:cjc135_7030"
    INDEX 01 07:37:57
  TRACK 351 AUDIO
    TITLE "0:"
    INDEX 01 07:39:74
  TRACK 352 AUDIO
    TITLE "32:cjc135_7031"
    INDEX 01 07:40:24
  TRACK 353 AUDIO
    TITLE "0:"
    INDEX 01 07:42:43
  TRACK 354 AUDIO
    TITLE "29:cjc135_7032"
    INDEX 01 07:43:42
  TRACK 355 AUDIO
    TITLE "0:"
    INDEX 01 07:44:63
  TRACK 356 AUDIO
    TITLE "30:cjc135_7033"
    INDEX 01 07:45:39
  TRACK 357 AUDIO
    TITLE "0:"
    INDEX 01 07:47:52
  TRACK 358 AUDIO
    TITLE "31:cjc135_7034"
    INDEX 01 07:48:06
  TRACK 359 AUDIO
    TITLE "0:"
    INDEX 01 07:49:58
  TRACK 360 AUDIO
    TITLE "32:cjc135_7035"
    INDEX 01 07:50:11
  TRACK 361 AUDIO
    TITLE "0:"
    INDEX 01 07:51:63
  TRACK 362 AUDIO
    TITLE "29:cjc135_7036"
    INDEX 01 07:52:65
  TRACK 363 AUDIO
    TITLE "0:"
    INDEX 01 07:54:01
  TRACK 364 AUDIO
    TITLE "30:cjc135_7037"
    INDEX 01 07:54:50
  TRACK 365 AUDIO
    TITLE "0:"
    INDEX 01 07:57:13
  TRACK 366 AUDIO
    TITLE "31:cjc135_7038"
    INDEX 01 07:57:40
  TRACK 367 AUDIO
    TITLE "0:"
    INDEX 01 07:59:45
  TRACK 368 AUDIO
    TITLE "32:cjc135_7039"
    INDEX 01 07:59:73
  TRACK 369 AUDIO
    TITLE "0:"
    INDEX 01 08:02:04
  TRACK 370 AUDIO
    TITLE "29:cjc135_7040"
    INDEX 01 08:03:04
  TRACK 371 AUDIO
    TITLE "0:"
    INDEX 01 08:04:33
  TRACK 372 AUDIO
    TITLE "30:cjc135_7041"
    INDEX 01 08:05:10
  TRACK 373 AUDIO
    TITLE "0:"
    INDEX 01 08:06:73
  TRACK 374 AUDIO
    TITLE "31:cjc135_7042"
    INDEX 01 08:07:25
  TRACK 375 AUDIO
    TITLE "0:"
    INDEX 01 08:09:30
  TRACK 376 AUDIO
    TITLE "32:cjc135_7043"
    INDEX 01 08:09:55
  TRACK 377 AUDIO
    TITLE "0:"
    INDEX 01 08:11:58
  TRACK 378 AUDIO
    TITLE "29:cjc135_7044"
    INDEX 01 08:12:60
  TRACK 379 AUDIO
    TITLE "0:"
    INDEX 01 08:14:02
  TRACK 380 AUDIO
    TITLE "30:cjc135_7045"
    INDEX 01 08:14:53
  TRACK 381 AUDIO
    TITLE "0:"
    INDEX 01 08:17:47
  TRACK 382 AUDIO
    TITLE "31:cjc135_7046"
    INDEX 01 08:17:72
  TRACK 383 AUDIO
    TITLE "0:"
    INDEX 01 08:20:02
  TRACK 384 AUDIO
    TITLE "32:cjc135_7047"
    INDEX 01 08:20:32
  TRACK 385 AUDIO
    TITLE "0:"
    INDEX 01 08:22:34
  TRACK 386 AUDIO
    TITLE "29:cjc135_7048"
    INDEX 01 08:23:38
  TRACK 387 AUDIO
    TITLE "0:"
    INDEX 01 08:24:47
  TRACK 388 AUDIO
    TITLE "30:cjc135_7049"
    INDEX 01 08:25:23
  TRACK 389 AUDIO
    TITLE "0:"
    INDEX 01 08:27:51
  TRACK 390 AUDIO
    TITLE "31:cjc135_7050"
    INDEX 01 08:28:02
  TRACK 391 AUDIO
    TITLE "0:"
    INDEX 01 08:30:08
  TRACK 392 AUDIO
    TITLE "32:cjc135_7051"
    INDEX 01 08:30:32
  TRACK 393 AUDIO
    TITLE "0:"
    INDEX 01 08:32:37
  TRACK 394 AUDIO
    TITLE "29:cjc135_7052"
    INDEX 01 08:33:36
  TRACK 395 AUDIO
    TITLE "0:"
    INDEX 01 08:34:49
  TRACK 396 AUDIO
    TITLE "30:cjc135_7053"
    INDEX 01 08:35:25
  TRACK 397 AUDIO
    TITLE "0:"
    INDEX 01 08:38:14
  TRACK 398 AUDIO
    TITLE "31:cjc135_7054"
    INDEX 01 08:38:39
  TRACK 399 AUDIO
    TITLE "0:"
    INDEX 01 08:41:06
  TRACK 400 AUDIO
    TITLE "32:cjc135_7055"
    INDEX 01 08:41:30
  TRACK 401 AUDIO
    TITLE "0:"
    INDEX 01 08:43:70
  TRACK 402 AUDIO
    TITLE "29:cjc135_7056"
    INDEX 01 08:44:71
  TRACK 403 AUDIO
    TITLE "0:"
    INDEX 01 08:46:06
  TRACK 404 AUDIO
    TITLE "30:cjc135_7057"
    INDEX 01 08:46:56
  TRACK 405 AUDIO
    TITLE "0:"
    INDEX 01 08:48:28
  TRACK 406 AUDIO
    TITLE "31:cjc135_7058"
    INDEX 01 08:48:55
  TRACK 407 AUDIO
    TITLE "0:"
    INDEX 01 08:50:21
  TRACK 408 AUDIO
    TITLE "32:cjc135_7059"
    INDEX 01 08:50:44
  TRACK 409 AUDIO
    TITLE "0:"
    INDEX 01 08:52:12
  TRACK 410 AUDIO
    TITLE "29:cjc135_7060"
    INDEX 01 08:53:08
  TRACK 411 AUDIO
    TITLE "0:"
    INDEX 01 08:54:11
  TRACK 412 AUDIO
    TITLE "30:cjc135_7061"
    INDEX 01 08:54:60
  TRACK 413 AUDIO
    TITLE "0:"
    INDEX 01 08:57:27
  TRACK 414 AUDIO
    TITLE "31:cjc135_7062"
    INDEX 01 08:57:50
  TRACK 415 AUDIO
    TITLE "0:"
    INDEX 01 08:59:08
  TRACK 416 AUDIO
    TITLE "32:cjc135_7063"
    INDEX 01 08:59:32
  TRACK 417 AUDIO
    TITLE "0:"
    INDEX 01 09:00:66
  TRACK 418 AUDIO
    TITLE "29:cjc135_7064"
    INDEX 01 09:01:64
  TRACK 419 AUDIO
    TITLE "0:"
    INDEX 01 09:02:69
  TRACK 420 AUDIO
    TITLE "30:cjc135_7065"
    INDEX 01 09:03:41
  TRACK 421 AUDIO
    TITLE "0:"
    INDEX 01 09:06:57
  TRACK 422 AUDIO
    TITLE "31:cjc135_7066"
    INDEX 01 09:07:08
  TRACK 423 AUDIO
    TITLE "0:"
    INDEX 01 09:09:73
  TRACK 424 AUDIO
    TITLE "32:cjc135_7067"
    INDEX 01 09:10:22
  TRACK 425 AUDIO
    TITLE "0:"
    INDEX 01 09:13:14
  TRACK 426 AUDIO
    TITLE "29:cjc135_7068"
    INDEX 01 09:14:12
  TRACK 427 AUDIO
    TITLE "0:"
    INDEX 01 09:15:07
  TRACK 428 AUDIO
    TITLE "30:cjc135_7069"
    INDEX 01 09:15:58
  TRACK 429 AUDIO
    TITLE "0:"
    INDEX 01 09:17:69
  TRACK 430 AUDIO
    TITLE "31:cjc135_7070"
    INDEX 01 09:18:19
  TRACK 431 AUDIO
    TITLE "0:"
    INDEX 01 09:20:24
  TRACK 432 AUDIO
    TITLE "32:cjc135_7071"
    INDEX 01 09:20:48
  TRACK 433 AUDIO
    TITLE "0:"
    INDEX 01 09:22:50
  TRACK 434 AUDIO
    TITLE "29:cjc135_7072"
    INDEX 01 09:23:54
  TRACK 435 AUDIO
    TITLE "0:"
    INDEX 01 09:25:17
  TRACK 436 AUDIO
    TITLE "30:cjc135_7073"
    INDEX 01 09:25:66
  TRACK 437 AUDIO
    TITLE "0:"
    INDEX 01 09:28:37
  TRACK 438 AUDIO
    TITLE "31:cjc135_7074"
    INDEX 01 09:28:63
  TRACK 439 AUDIO
    TITLE "0:"
    INDEX 01 09:31:30
  TRACK 440 AUDIO
    TITLE "32:cjc135_7075"
    INDEX 01 09:31:55
  TRACK 441 AUDIO
    TITLE "0:"
    INDEX 01 09:34:24
  TRACK 442 AUDIO
    TITLE "29:cjc135_7076"
    INDEX 01 09:35:22
  TRACK 443 AUDIO
    TITLE "0:"
    INDEX 01 09:36:41
  TRACK 444 AUDIO
    TITLE "30:cjc135_7077"
    INDEX 01 09:37:15
  TRACK 445 AUDIO
    TITLE "0:"
    INDEX 01 09:39:23
  TRACK 446 AUDIO
    TITLE "31:cjc135_7078"
    INDEX 01 09:39:55
  TRACK 447 AUDIO
    TITLE "0:"
    INDEX 01 09:41:44
  TRACK 448 AUDIO
    TITLE "32:cjc135_7079"
    INDEX 01 09:41:73
  TRACK 449 AUDIO
    TITLE "0:"
    INDEX 01 09:43:64
  TRACK 450 AUDIO
    TITLE "29:cjc135_7080"
    INDEX 01 09:44:62
  TRACK 451 AUDIO
    TITLE "0:"
    INDEX 01 09:45:67
  TRACK 452 AUDIO
    TITLE "30:cjc135_7081"
    INDEX 01 09:46:43
  TRACK 453 AUDIO
    TITLE "0:"
    INDEX 01 09:48:58
  TRACK 454 AUDIO
    TITLE "31:cjc135_7082"
    INDEX 01 09:49:08
  TRACK 455 AUDIO
    TITLE "0:"
    INDEX 01 09:50:45
  TRACK 456 AUDIO
    TITLE "32:cjc135_7083"
    INDEX 01 09:50:70
  TRACK 457 AUDIO
    TITLE "0:"
    INDEX 01 09:52:34
  TRACK 458 AUDIO
    TITLE "29:cjc135_7084"
    INDEX 01 09:53:35
  TRACK 459 AUDIO
    TITLE "0:"
    INDEX 01 09:54:52
  TRACK 460 AUDIO
    TITLE "30:cjc135_7085"
    INDEX 01 09:55:26
  TRACK 461 AUDIO
    TITLE "0:"
    INDEX 01 09:57:51
  TRACK 462 AUDIO
    TITLE "31:cjc135_7086"
    INDEX 01 09:58:03
  TRACK 463 AUDIO
    TITLE "0:"
    INDEX 01 10:00:29
  TRACK 464 AUDIO
    TITLE "32:cjc135_7087"
    INDEX 01 10:00:57
  TRACK 465 AUDIO
    TITLE "0:"
    INDEX 01 10:03:10
  TRACK 466 AUDIO
    TITLE "29:cjc135_7088"
    INDEX 01 10:04:12
  TRACK 467 AUDIO
    TITLE "0:"
    INDEX 01 10:05:21
  TRACK 468 AUDIO
    TITLE "30:cjc135_7089"
    INDEX 01 10:05:70
  TRACK 469 AUDIO
    TITLE "0:"
    INDEX 01 10:08:31
  TRACK 470 AUDIO
    TITLE "31:cjc135_7090"
    INDEX 01 10:08:54
  TRACK 471 AUDIO
    TITLE "0:"
    INDEX 01 10:10:67
  TRACK 472 AUDIO
    TITLE "32:cjc135_7091"
    INDEX 01 10:11:15
  TRACK 473 AUDIO
    TITLE "0:"
    INDEX 01 10:13:26
  TRACK 474 AUDIO
    TITLE "29:cjc135_7092"
    INDEX 01 10:14:26
  TRACK 475 AUDIO
    TITLE "0:"
    INDEX 01 10:15:41
  TRACK 476 AUDIO
    TITLE "30:cjc135_7093"
    INDEX 01 10:16:17
  TRACK 477 AUDIO
    TITLE "0:"
    INDEX 01 10:18:49
  TRACK 478 AUDIO
    TITLE "31:cjc135_7094"
    INDEX 01 10:18:72
  TRACK 479 AUDIO
    TITLE "0:"
    INDEX 01 10:20:65
  TRACK 480 AUDIO
    TITLE "32:cjc135_7095"
    INDEX 01 10:21:14
  TRACK 481 AUDIO
    TITLE "0:"
    INDEX 01 10:23:09
  TRACK 482 AUDIO
    TITLE "29:cjc135_7096"
    INDEX 01 10:24:06
  TRACK 483 AUDIO
    TITLE "0:"
    INDEX 01 10:25:47
  TRACK 484 AUDIO
    TITLE "30:cjc135_7097"
    INDEX 01 10:26:23
  TRACK 485 AUDIO
    TITLE "0:"
    INDEX 01 10:28:22
  TRACK 486 AUDIO
    TITLE "31:cjc135_7098"
    INDEX 01 10:28:49
  TRACK 487 AUDIO
    TITLE "0:"
    INDEX 01 10:30:54
  TRACK 488 AUDIO
    TITLE "32:cjc135_7099"
    INDEX 01 10:31:03
  TRACK 489 AUDIO
    TITLE "0:"
    INDEX 01 10:33:05
  TRACK 490 AUDIO
    TITLE "29:cjc135_7100"
    INDEX 01 10:34:05
  TRACK 491 AUDIO
    TITLE "0:"
    INDEX 01 10:35:06
  TRACK 492 AUDIO
    TITLE "30:cjc135_7101"
    INDEX 01 10:35:55
  TRACK 493 AUDIO
    TITLE "0:"
    INDEX 01 10:37:56
  TRACK 494 AUDIO
    TITLE "31:cjc135_7102"
    INDEX 01 10:38:05
  TRACK 495 AUDIO
    TITLE "0:"
    INDEX 01 10:39:57
  TRACK 496 AUDIO
    TITLE "32:cjc135_7103"
    INDEX 01 10:40:07
  TRACK 497 AUDIO
    TITLE "0:"
    INDEX 01 10:41:58
  TRACK 498 AUDIO
    TITLE "29:cjc135_7104"
    INDEX 01 10:42:59
  TRACK 499 AUDIO
    TITLE "0:"
    INDEX 01 10:44:07
  TRACK 500 AUDIO
    TITLE "30:cjc135_7105"
    INDEX 01 10:44:58
  TRACK 501 AUDIO
    TITLE "0:"
    INDEX 01 10:47:03
  TRACK 502 AUDIO
    TITLE "31:cjc135_7106"
    INDEX 01 10:47:29
  TRACK 503 AUDIO
    TITLE "0:"
    INDEX 01 10:49:53
  TRACK 504 AUDIO
    TITLE "32:cjc135_7107"
    INDEX 01 10:50:04
  TRACK 505 AUDIO
    TITLE "0:"
    INDEX 01 10:52:30
  TRACK 506 AUDIO
    TITLE "29:cjc135_7108"
    INDEX 01 10:53:30
  TRACK 507 AUDIO
    TITLE "0:"
    INDEX 01 10:54:58
  TRACK 508 AUDIO
    TITLE "30:cjc135_7109"
    INDEX 01 10:55:30
  TRACK 509 AUDIO
    TITLE "0:"
    INDEX 01 10:58:44
  TRACK 510 AUDIO
    TITLE "31:cjc135_7110"
    INDEX 01 10:58:72
  TRACK 511 AUDIO
    TITLE "0:"
    INDEX 01 11:01:68
  TRACK 512 AUDIO
    TITLE "32:cjc135_7111"
    INDEX 01 11:02:17
  TRACK 513 AUDIO
    TITLE "0:"
    INDEX 01 11:05:13
  TRACK 514 AUDIO
    TITLE "29:cjc135_7112"
    INDEX 01 11:06:13
  TRACK 515 AUDIO
    TITLE "0:"
    INDEX 01 11:07:34
  TRACK 516 AUDIO
    TITLE "30:cjc135_7113"
    INDEX 01 11:08:12
  TRACK 517 AUDIO
    TITLE "0:"
    INDEX 01 11:09:62
  TRACK 518 AUDIO
    TITLE "31:cjc135_7114"
    INDEX 01 11:10:12
  TRACK 519 AUDIO
    TITLE "0:"
    INDEX 01 11:12:09
  TRACK 520 AUDIO
    TITLE "32:cjc135_7115"
    INDEX 01 11:12:33
  TRACK 521 AUDIO
    TITLE "0:"
    INDEX 01 11:14:30
  TRACK 522 AUDIO
    TITLE "29:cjc135_7116"
    INDEX 01 11:15:27
  TRACK 523 AUDIO
    TITLE "0:"
    INDEX 01 11:16:38
  TRACK 524 AUDIO
    TITLE "30:cjc135_7117"
    INDEX 01 11:17:12
  TRACK 525 AUDIO
    TITLE "0:"
    INDEX 01 11:19:19
  TRACK 526 AUDIO
    TITLE "31:cjc135_7118"
    INDEX 01 11:19:45
  TRACK 527 AUDIO
    TITLE "0:"
    INDEX 01 11:21:55
  TRACK 528 AUDIO
    TITLE "32:cjc135_7119"
    INDEX 01 11:22:04
  TRACK 529 AUDIO
    TITLE "0:"
    INDEX 01 11:24:14
  TRACK 530 AUDIO
    TITLE "29:cjc135_7120"
    INDEX 01 11:25:14
  TRACK 531 AUDIO
    TITLE "0:"
    INDEX 01 11:26:33
  TRACK 532 AUDIO
    TITLE "30:cjc135_7121"
    INDEX 01 11:27:07
  TRACK 533 AUDIO
    TITLE "0:"
    INDEX 01 11:29:02
  TRACK 534 AUDIO
    TITLE "31:cjc135_7122"
    INDEX 01 11:29:27
  TRACK 535 AUDIO
    TITLE "0:"
    INDEX 01 11:31:18
  TRACK 536 AUDIO
    TITLE "32:cjc135_7123"
    INDEX 01 11:31:44
  TRACK 537 AUDIO
    TITLE "0:"
    INDEX 01 11:33:35
  TRACK 538 AUDIO
    TITLE "29:cjc135_7124"
    INDEX 01 11:34:36
  TRACK 539 AUDIO
    TITLE "0:"
    INDEX 01 11:35:57
  TRACK 540 AUDIO
    TITLE "30:cjc135_7125"
    INDEX 01 11:36:31
  TRACK 541 AUDIO
    TITLE "0:"
    INDEX 01 11:39:32
  TRACK 542 AUDIO
    TITLE "31:cjc135_7126"
    INDEX 01 11:39:57
  TRACK 543 AUDIO
    TITLE "0:"
    INDEX 01 11:42:57
  TRACK 544 AUDIO
    TITLE "32:cjc135_7127"
    INDEX 01 11:43:08
  TRACK 545 AUDIO
    TITLE "0:"
    INDEX 01 11:46:08
  TRACK 546 AUDIO
    TITLE "29:cjc135_7128"
    INDEX 01 11:47:08
  TRACK 547 AUDIO
    TITLE "0:"
    INDEX 01 11:48:31
  TRACK 548 AUDIO
    TITLE "30:cjc135_7129"
    INDEX 01 11:49:07
  TRACK 549 AUDIO
    TITLE "0:"
    INDEX 01 11:51:13
  TRACK 550 AUDIO
    TITLE "31:cjc135_7130"
    INDEX 01 11:51:37
  TRACK 551 AUDIO
    TITLE "0:"
    INDEX 01 11:53:45
  TRACK 552 AUDIO
    TITLE "32:cjc135_7131"
    INDEX 01 11:53:69
  TRACK 553 AUDIO
    TITLE "0:"
    INDEX 01 11:56:01
  TRACK 554 AUDIO
    TITLE "29:cjc135_7132"
    INDEX 01 11:57:02
  TRACK 555 AUDIO
    TITLE "0:"
    INDEX 01 11:58:17
  TRACK 556 AUDIO
    TITLE "30:cjc135_7133"
    INDEX 01 11:58:66
  TRACK 557 AUDIO
    TITLE "0:"
    INDEX 01 12:01:00
  TRACK 558 AUDIO
    TITLE "31:cjc135_7134"
    INDEX 01 12:01:25
  TRACK 559 AUDIO
    TITLE "0:"
    INDEX 01 12:03:03
  TRACK 560 AUDIO
    TITLE "32:cjc135_7135"
    INDEX 01 12:03:30
  TRACK 561 AUDIO
    TITLE "0:"
    INDEX 01 12:05:09
  TRACK 562 AUDIO
    TITLE "29:cjc135_7136"
    INDEX 01 12:06:09
  TRACK 563 AUDIO
    TITLE "0:"
    INDEX 01 12:07:42
  TRACK 564 AUDIO
    TITLE "30:cjc135_7137"
    INDEX 01 12:08:18
  TRACK 565 AUDIO
    TITLE "0:"
    INDEX 01 12:11:26
  TRACK 566 AUDIO
    TITLE "31:cjc135_7138"
    INDEX 01 12:11:49
  TRACK 567 AUDIO
    TITLE "0:"
    INDEX 01 12:14:54
  TRACK 568 AUDIO
    TITLE "32:cjc135_7139"
    INDEX 01 12:15:02
  TRACK 569 AUDIO
    TITLE "0:"
    INDEX 01 12:18:06
  TRACK 570 AUDIO
    TITLE "29:cjc135_7140"
    INDEX 01 12:19:04
  TRACK 571 AUDIO
    TITLE "0:"
    INDEX 01 12:20:19
  TRACK 572 AUDIO
    TITLE "30:cjc135_7141"
    INDEX 01 12:20:72
  TRACK 573 AUDIO
    TITLE "0:"
    INDEX 01 12:23:25
  TRACK 574 AUDIO
    TITLE "31:cjc135_7142"
    INDEX 01 12:23:49
  TRACK 575 AUDIO
    TITLE "0:"
    INDEX 01 12:26:02
  TRACK 576 AUDIO
    TITLE "32:cjc135_7143"
    INDEX 01 12:26:25
  TRACK 577 AUDIO
    TITLE "0:"
    INDEX 01 12:28:54
  TRACK 578 AUDIO
    TITLE "29:cjc135_7144"
    INDEX 01 12:29:55
  TRACK 579 AUDIO
    TITLE "0:"
    INDEX 01 12:30:68
  TRACK 580 AUDIO
    TITLE "30:cjc135_7145"
    INDEX 01 12:31:38
  TRACK 581 AUDIO
    TITLE "0:"
    INDEX 01 12:35:48
  TRACK 582 AUDIO
    TITLE "31:cjc135_7146"
    INDEX 01 12:35:73
  TRACK 583 AUDIO
    TITLE "0:"
    INDEX 01 12:39:26
  TRACK 584 AUDIO
    TITLE "32:cjc135_7147"
    INDEX 01 12:39:55
  TRACK 585 AUDIO
    TITLE "0:"
    INDEX 01 12:43:08
  TRACK 586 AUDIO
    TITLE "29:cjc135_7148"
    INDEX 01 12:44:12
  TRACK 587 AUDIO
    TITLE "0:"
    INDEX 01 12:45:11
  TRACK 588 AUDIO
    TITLE "30:cjc135_7149"
    INDEX 01 12:45:62
  TRACK 589 AUDIO
    TITLE "0:"
    INDEX 01 12:48:39
  TRACK 590 AUDIO
    TITLE "31:cjc135_7150"
    INDEX 01 12:48:64
  TRACK 591 AUDIO
    TITLE "0:"
    INDEX 01 12:51:02
  TRACK 592 AUDIO
    TITLE "32:cjc135_7151"
    INDEX 01 12:51:27
  TRACK 593 AUDIO
    TITLE "0:"
    INDEX 01 12:53:40
  TRACK 594 AUDIO
    TITLE "29:cjc135_7152"
    INDEX 01 12:54:39
  TRACK 595 AUDIO
    TITLE "0:"
    INDEX 01 12:55:41
  TRACK 596 AUDIO
    TITLE "30:cjc135_7153"
    INDEX 01 12:56:19
  TRACK 597 AUDIO
    TITLE "0:"
    INDEX 01 12:59:40
  TRACK 598 AUDIO
    TITLE "31:cjc135_7154"
    INDEX 01 12:59:66
  TRACK 599 AUDIO
    TITLE "0:"
    INDEX 01 13:02:23
  TRACK 600 AUDIO
    TITLE "32:cjc135_7155"
    INDEX 01 13:02:51
  TRACK 601 AUDIO
    TITLE "0:"
    INDEX 01 13:05:10
  TRACK 602 AUDIO
    TITLE "29:cjc135_7156"
    INDEX 01 13:06:09
  TRACK 603 AUDIO
    TITLE "0:"
    INDEX 01 13:07:28
  TRACK 604 AUDIO
    TITLE "30:cjc135_7157"
    INDEX 01 13:08:02
  TRACK 605 AUDIO
    TITLE "0:"
    INDEX 01 13:10:48
  TRACK 606 AUDIO
    TITLE "31:cjc135_7158"
    INDEX 01 13:11:01
  TRACK 607 AUDIO
    TITLE "0:"
    INDEX 01 13:13:17
  TRACK 608 AUDIO
    TITLE "32:cjc135_7159"
    INDEX 01 13:13:43
  TRACK 609 AUDIO
    TITLE "0:"
    INDEX 01 13:15:59
  TRACK 610 AUDIO
    TITLE "29:cjc135_7160"
    INDEX 01 13:16:60
  TRACK 611 AUDIO
    TITLE "0:"
    INDEX 01 13:17:70
  TRACK 612 AUDIO
    TITLE "30:cjc135_7161"
    INDEX 01 13:18:44
  TRACK 613 AUDIO
    TITLE "0:"
    INDEX 01 13:20:66
  TRACK 614 AUDIO
    TITLE "31:cjc135_7162"
    INDEX 01 13:21:17
  TRACK 615 AUDIO
    TITLE "0:"
    INDEX 01 13:23:35
  TRACK 616 AUDIO
    TITLE "32:cjc135_7163"
    INDEX 01 13:23:61
  TRACK 617 AUDIO
    TITLE "0:"
    INDEX 01 13:26:02
  TRACK 618 AUDIO
    TITLE "29:cjc135_7164"
    INDEX 01 13:27:02
  TRACK 619 AUDIO
    TITLE "0:"
    INDEX 01 13:28:19
  TRACK 620 AUDIO
    TITLE "30:cjc135_7165"
    INDEX 01 13:28:70
  TRACK 621 AUDIO
    TITLE "0:"
    INDEX 01 13:31:64
  TRACK 622 AUDIO
    TITLE "31:cjc135_7166"
    INDEX 01 13:32:14
  TRACK 623 AUDIO
    TITLE "0:"
    INDEX 01 13:34:62
  TRACK 624 AUDIO
    TITLE "32:cjc135_7167"
    INDEX 01 13:35:13
  TRACK 625 AUDIO
    TITLE "0:"
    INDEX 01 13:37:57
  TRACK 626 AUDIO
    TITLE "29:cjc135_7168"
    INDEX 01 13:38:60
  TRACK 627 AUDIO
    TITLE "0:"
    INDEX 01 13:39:71
  TRACK 628 AUDIO
    TITLE "30:cjc135_7169"
    INDEX 01 13:40:45
  TRACK 629 AUDIO
    TITLE "0:"
    INDEX 01 13:42:38
  TRACK 630 AUDIO
    TITLE "31:cjc135_7170"
    INDEX 01 13:42:62
  TRACK 631 AUDIO
    TITLE "0:"
    INDEX 01 13:44:61
  TRACK 632 AUDIO
    TITLE "32:cjc135_7171"
    INDEX 01 13:45:09
  TRACK 633 AUDIO
    TITLE "0:"
    INDEX 01 13:47:08
  TRACK 634 AUDIO
    TITLE "29:cjc135_7172"
    INDEX 01 13:48:08
  TRACK 635 AUDIO
    TITLE "0:"
    INDEX 01 13:49:19
  TRACK 636 AUDIO
    TITLE "30:cjc135_7173"
    INDEX 01 13:49:68
  TRACK 637 AUDIO
    TITLE "0:"
    INDEX 01 13:52:05
  TRACK 638 AUDIO
    TITLE "31:cjc135_7174"
    INDEX 01 13:52:29
  TRACK 639 AUDIO
    TITLE "0:"
    INDEX 01 13:53:60
  TRACK 640 AUDIO
    TITLE "32:cjc135_7175"
    INDEX 01 13:54:08
  TRACK 641 AUDIO
    TITLE "0:"
    INDEX 01 13:55:41
  TRACK 642 AUDIO
    TITLE "29:cjc135_7176"
    INDEX 01 13:56:40
  TRACK 643 AUDIO
    TITLE "0:"
    INDEX 01 13:57:69
  TRACK 644 AUDIO
    TITLE "30:cjc135_7177"
    INDEX 01 13:58:45
  TRACK 645 AUDIO
    TITLE "0:"
    INDEX 01 14:01:04
  TRACK 646 AUDIO
    TITLE "31:cjc135_7178"
    INDEX 01 14:01:30
  TRACK 647 AUDIO
    TITLE "0:"
    INDEX 01 14:03:42
  TRACK 648 AUDIO
    TITLE "32:cjc135_7179"
    INDEX 01 14:03:68
  TRACK 649 AUDIO
    TITLE "0:"
    INDEX 01 14:06:02
  TRACK 650 AUDIO
    TITLE "29:cjc135_7180"
    INDEX 01 14:07:05
  TRACK 651 AUDIO
    TITLE "0:"
    INDEX 01 14:08:20
  TRACK 652 AUDIO
    TITLE "30:cjc135_7181"
    INDEX 01 14:08:73
  TRACK 653 AUDIO
    TITLE "0:"
    INDEX 01 14:11:52
  TRACK 654 AUDIO
    TITLE "31:cjc135_7182"
    INDEX 01 14:12:08
  TRACK 655 AUDIO
    TITLE "0:"
    INDEX 01 14:14:64
  TRACK 656 AUDIO
    TITLE "32:cjc135_7183"
    INDEX 01 14:15:12
  TRACK 657 AUDIO
    TITLE "0:"
    INDEX 01 14:17:68
  TRACK 658 AUDIO
    TITLE "29:cjc135_7184"
    INDEX 01 14:18:67
  TRACK 659 AUDIO
    TITLE "0:"
    INDEX 01 14:20:00
  TRACK 660 AUDIO
    TITLE "30:cjc135_7185"
    INDEX 01 14:20:51
  TRACK 661 AUDIO
    TITLE "0:"
    INDEX 01 14:22:54
  TRACK 662 AUDIO
    TITLE "31:cjc135_7186"
    INDEX 01 14:23:04
  TRACK 663 AUDIO
    TITLE "0:"
    INDEX 01 14:24:52
  TRACK 664 AUDIO
    TITLE "32:cjc135_7187"
    INDEX 01 14:25:03
  TRACK 665 AUDIO
    TITLE "0:"
    INDEX 01 14:26:49
  TRACK 666 AUDIO
    TITLE "29:cjc135_7188"
    INDEX 01 14:27:49
  TRACK 667 AUDIO
    TITLE "0:"
    INDEX 01 14:29:03
  TRACK 668 AUDIO
    TITLE "30:cjc135_7189"
    INDEX 01 14:29:56
  TRACK 669 AUDIO
    TITLE "0:"
    INDEX 01 14:31:15
  TRACK 670 AUDIO
    TITLE "31:cjc135_7190"
    INDEX 01 14:31:39
  TRACK 671 AUDIO
    TITLE "0:"
    INDEX 01 14:33:14
  TRACK 672 AUDIO
    TITLE "32:cjc135_7191"
    INDEX 01 14:33:38
  TRACK 673 AUDIO
    TITLE "0:"
    INDEX 01 14:35:11
  TRACK 674 AUDIO
    TITLE "29:cjc135_7192"
    INDEX 01 14:36:11
  TRACK 675 AUDIO
    TITLE "0:"
    INDEX 01 14:37:53
  TRACK 676 AUDIO
    TITLE "30:cjc135_7193"
    INDEX 01 14:38:27
  TRACK 677 AUDIO
    TITLE "0:"
    INDEX 01 14:41:69
  TRACK 678 AUDIO
    TITLE "31:cjc135_7194"
    INDEX 01 14:42:17
  TRACK 679 AUDIO
    TITLE "0:"
    INDEX 01 14:45:04
  TRACK 680 AUDIO
    TITLE "32:cjc135_7195"
    INDEX 01 14:45:29
  TRACK 681 AUDIO
    TITLE "0:"
    INDEX 01 14:48:16
  TRACK 682 AUDIO
    TITLE "29:cjc135_7196"
    INDEX 01 14:49:17
  TRACK 683 AUDIO
    TITLE "0:"
    INDEX 01 14:50:46
  TRACK 684 AUDIO
    TITLE "30:cjc135_7197"
    INDEX 01 14:51:20
  TRACK 685 AUDIO
    TITLE "0:"
    INDEX 01 14:54:18
  TRACK 686 AUDIO
    TITLE "31:cjc135_7198"
    INDEX 01 14:54:44
  TRACK 687 AUDIO
    TITLE "0:"
    INDEX 01 14:57:17
  TRACK 688 AUDIO
    TITLE "32:cjc135_7199"
    INDEX 01 14:57:42
  TRACK 689 AUDIO
    TITLE "0:"
    INDEX 01 15:00:15
  TRACK 690 AUDIO
    TITLE "29:cjc135_7200"
    INDEX 01 15:01:14
  TRACK 691 AUDIO
    TITLE "0:"
    INDEX 01 15:02:30
  TRACK 692 AUDIO
    TITLE "30:cjc135_7201"
    INDEX 01 15:03:05
  TRACK 693 AUDIO
    TITLE "0:"
    INDEX 01 15:04:60
  TRACK 694 AUDIO
    TITLE "31:cjc135_7202"
    INDEX 01 15:05:10
  TRACK 695 AUDIO
    TITLE "0:"
    INDEX 01 15:06:68
  TRACK 696 AUDIO
    TITLE "32:cjc135_7203"
    INDEX 01 15:07:17
  TRACK 697 AUDIO
    TITLE "0:"
    INDEX 01 15:09:00
  TRACK 698 AUDIO
    TITLE "29:cjc135_7204"
    INDEX 01 15:10:00
  TRACK 699 AUDIO
    TITLE "0:"
    INDEX 01 15:11:09
  TRACK 700 AUDIO
    TITLE "30:cjc135_7205"
    INDEX 01 15:11:60
  TRACK 701 AUDIO
    TITLE "0:"
    INDEX 01 15:13:45
  TRACK 702 AUDIO
    TITLE "31:cjc135_7206"
    INDEX 01 15:13:70
  TRACK 703 AUDIO
    TITLE "0:"
    INDEX 01 15:15:56
  TRACK 704 AUDIO
    TITLE "32:cjc135_7207"
    INDEX 01 15:16:08
  TRACK 705 AUDIO
    TITLE "0:"
    INDEX 01 15:17:70
  TRACK 706 AUDIO
    TITLE "29:cjc135_7208"
    INDEX 01 15:18:70
  TRACK 707 AUDIO
    TITLE "0:"
    INDEX 01 15:20:14
  TRACK 708 AUDIO
    TITLE "30:cjc135_7209"
    INDEX 01 15:20:65
  TRACK 709 AUDIO
    TITLE "0:"
    INDEX 01 15:22:54
  TRACK 710 AUDIO
    TITLE "31:cjc135_7210"
    INDEX 01 15:23:04
  TRACK 711 AUDIO
    TITLE "0:"
    INDEX 01 15:24:66
  TRACK 712 AUDIO
    TITLE "32:cjc135_7211"
    INDEX 01 15:25:13
  TRACK 713 AUDIO
    TITLE "0:"
    INDEX 01 15:27:00
  TRACK 714 AUDIO
    TITLE "29:cjc135_7212"
    INDEX 01 15:28:00
  TRACK 715 AUDIO
    TITLE "0:"
    INDEX 01 15:29:17
  TRACK 716 AUDIO
    TITLE "30:cjc135_7213"
    INDEX 01 15:29:68
  TRACK 717 AUDIO
    TITLE "0:"
    INDEX 01 15:31:57
  TRACK 718 AUDIO
    TITLE "31:cjc135_7214"
    INDEX 01 15:32:07
  TRACK 719 AUDIO
    TITLE "0:"
    INDEX 01 15:34:00
  TRACK 720 AUDIO
    TITLE "32:cjc135_7215"
    INDEX 01 15:34:26
  TRACK 721 AUDIO
    TITLE "0:"
    INDEX 01 15:36:15
  TRACK 722 AUDIO
    TITLE "29:cjc135_7216"
    INDEX 01 15:37:18
  TRACK 723 AUDIO
    TITLE "0:"
    INDEX 01 15:38:21
  TRACK 724 AUDIO
    TITLE "30:cjc135_7217"
    INDEX 01 15:38:74
  TRACK 725 AUDIO
    TITLE "0:"
    INDEX 01 15:41:14
  TRACK 726 AUDIO
    TITLE "31:cjc135_7218"
    INDEX 01 15:41:37
  TRACK 727 AUDIO
    TITLE "0:"
    INDEX 01 15:43:21
  TRACK 728 AUDIO
    TITLE "32:cjc135_7219"
    INDEX 01 15:43:48
  TRACK 729 AUDIO
    TITLE "0:"
    INDEX 01 15:45:33
  TRACK 730 AUDIO
    TITLE "29:cjc135_7220"
    INDEX 01 15:46:33
  TRACK 731 AUDIO
    TITLE "0:"
    INDEX 01 15:47:52
  TRACK 732 AUDIO
    TITLE "30:cjc135_7221"
    INDEX 01 15:48:28
  TRACK 733 AUDIO
    TITLE "0:"
    INDEX 01 15:50:70
  TRACK 734 AUDIO
    TITLE "31:cjc135_7222"
    INDEX 01 15:51:20
  TRACK 735 AUDIO
    TITLE "0:"
    INDEX 01 15:53:33
  TRACK 736 AUDIO
    TITLE "32:cjc135_7223"
    INDEX 01 15:53:56
  TRACK 737 AUDIO
    TITLE "0:"
    INDEX 01 15:55:71
  TRACK 738 AUDIO
    TITLE "29:cjc135_7224"
    INDEX 01 15:56:70
  TRACK 739 AUDIO
    TITLE "0:"
    INDEX 01 15:57:72
  TRACK 740 AUDIO
    TITLE "30:cjc135_7225"
    INDEX 01 15:58:50
  TRACK 741 AUDIO
    TITLE "0:"
    INDEX 01 16:01:11
  TRACK 742 AUDIO
    TITLE "31:cjc135_7226"
    INDEX 01 16:01:36
  TRACK 743 AUDIO
    TITLE "0:"
    INDEX 01 16:03:49
  TRACK 744 AUDIO
    TITLE "32:cjc135_7227"
    INDEX 01 16:03:74
  TRACK 745 AUDIO
    TITLE "0:"
    INDEX 01 16:06:12
  TRACK 746 AUDIO
    TITLE "29:cjc135_7228"
    INDEX 01 16:07:11
  TRACK 747 AUDIO
    TITLE "0:"
    INDEX 01 16:08:32
  TRACK 748 AUDIO
    TITLE "30:cjc135_7229"
    INDEX 01 16:09:06
  TRACK 749 AUDIO
    TITLE "0:"
    INDEX 01 16:11:42
  TRACK 750 AUDIO
    TITLE "31:cjc135_7230"
    INDEX 01 16:11:68
  TRACK 751 AUDIO
    TITLE "0:"
    INDEX 01 16:13:71
  TRACK 752 AUDIO
    TITLE "32:cjc135_7231"
    INDEX 01 16:14:19
  TRACK 753 AUDIO
    TITLE "0:"
    INDEX 01 16:16:22
  TRACK 754 AUDIO
    TITLE "29:cjc135_7232"
    INDEX 01 16:17:21
  TRACK 755 AUDIO
    TITLE "0:"
    INDEX 01 16:18:27
  TRACK 756 AUDIO
    TITLE "30:cjc135_7233"
    INDEX 01 16:18:72
  TRACK 757 AUDIO
    TITLE "0:"
    INDEX 01 16:22:15
  TRACK 758 AUDIO
    TITLE "31:cjc135_7234"
    INDEX 01 16:22:38
  TRACK 759 AUDIO
    TITLE "0:"
    INDEX 01 16:24:61
  TRACK 760 AUDIO
    TITLE "32:cjc135_7235"
    INDEX 01 16:25:11
  TRACK 761 AUDIO
    TITLE "0:"
    INDEX 01 16:27:34
  TRACK 762 AUDIO
    TITLE "29:cjc135_7236"
    INDEX 01 16:28:35
  TRACK 763 AUDIO
    TITLE "0:"
    INDEX 01 16:29:58
  TRACK 764 AUDIO
    TITLE "30:cjc135_7237"
    INDEX 01 16:30:38
  TRACK 765 AUDIO
    TITLE "0:"
    INDEX 01 16:32:45
  TRACK 766 AUDIO
    TITLE "31:cjc135_7238"
    INDEX 01 16:32:72
  TRACK 767 AUDIO
    TITLE "0:"
    INDEX 01 16:34:55
  TRACK 768 AUDIO
    TITLE "32:cjc135_7239"
    INDEX 01 16:35:04
  TRACK 769 AUDIO
    TITLE "0:"
    INDEX 01 16:36:64
  TRACK 770 AUDIO
    TITLE "29:cjc135_7240"
    INDEX 01 16:37:61
  TRACK 771 AUDIO
    TITLE "0:"
    INDEX 01 16:38:67
  TRACK 772 AUDIO
    TITLE "30:cjc135_7241"
    INDEX 01 16:39:39
  TRACK 773 AUDIO
    TITLE "0:"
    INDEX 01 16:42:31
  TRACK 774 AUDIO
    TITLE "31:cjc135_7242"
    INDEX 01 16:42:55
  TRACK 775 AUDIO
    TITLE "0:"
    INDEX 01 16:44:63
  TRACK 776 AUDIO
    TITLE "32:cjc135_7243"
    INDEX 01 16:45:12
  TRACK 777 AUDIO
    TITLE "0:"
    INDEX 01 16:47:19
  TRACK 778 AUDIO
    TITLE "29:cjc135_7244"
    INDEX 01 16:48:20
  TRACK 779 AUDIO
    TITLE "0:"
    INDEX 01 16:49:57
  TRACK 780 AUDIO
    TITLE "30:cjc135_7245"
    INDEX 01 16:50:33
  TRACK 781 AUDIO
    TITLE "0:"
    INDEX 01 16:52:61
  TRACK 782 AUDIO
    TITLE "31:cjc135_7246"
    INDEX 01 16:53:09
  TRACK 783 AUDIO
    TITLE "0:"
    INDEX 01 16:55:18
  TRACK 784 AUDIO
    TITLE "32:cjc135_7247"
    INDEX 01 16:55:42
  TRACK 785 AUDIO
    TITLE "0:"
    INDEX 01 16:57:52
  TRACK 786 AUDIO
    TITLE "29:cjc135_7248"
    INDEX 01 16:58:46
  TRACK 787 AUDIO
    TITLE "0:"
    INDEX 01 16:59:67
  TRACK 788 AUDIO
    TITLE "30:cjc135_7249"
    INDEX 01 17:00:39
  TRACK 789 AUDIO
    TITLE "0:"
    INDEX 01 17:02:59
  TRACK 790 AUDIO
    TITLE "31:cjc135_7250"
    INDEX 01 17:03:10
  TRACK 791 AUDIO
    TITLE "0:"
    INDEX 01 17:04:68
  TRACK 792 AUDIO
    TITLE "32:cjc135_7251"
    INDEX 01 17:05:17
  TRACK 793 AUDIO
    TITLE "0:"
    INDEX 01 17:07:02
  TRACK 794 AUDIO
    TITLE "29:cjc135_7252"
    INDEX 01 17:07:74
  TRACK 795 AUDIO
    TITLE "0:"
    INDEX 01 17:09:03
  TRACK 796 AUDIO
    TITLE "30:cjc135_7253"
    INDEX 01 17:09:56
  TRACK 797 AUDIO
    TITLE "0:"
    INDEX 01 17:13:51
  TRACK 798 AUDIO
    TITLE "31:cjc135_7254"
    INDEX 01 17:14:02
  TRACK 799 AUDIO
    TITLE "0:"
    INDEX 01 17:16:73
  TRACK 800 AUDIO
    TITLE "32:cjc135_7255"
    INDEX 01 17:17:22
  TRACK 801 AUDIO
    TITLE "0:"
    INDEX 01 17:20:18
